#!OML:ASF C:\Vicon Data\Big\jianyuan-13\jianyuan\Session 1\Capture.male.ASF
:FULLY-SPECIFIED
:DEGREES
84
root -8.917193 18.050871 -15.700462 4.198856 1.745468 1.050041
lowerback -6.476415 3.270229 -1.155242 
upperback 3.091299 4.527891 -0.677625 
thorax 6.828303 2.190802 0.492167 
lowerneck -1.464012 -4.243356 3.551390 
upperneck 0.625411 -5.704328 -2.345601 
head 0.261655 -2.857204 -1.341732 
rclavicle 0.000000 0.000000 
rhumerus -16.044323 -1.096791 -88.671070 
rradius 53.782432 
rwrist 11.095489 
rhand -18.586376 -19.338409 
rfingers 0.000000 
rthumb 7.704411 -49.178037 
lclavicle 0.000000 0.000000 
lhumerus -53.978699 36.736475 51.840560 
lradius 25.027485 
lwrist -55.312723 
lhand -18.482654 -0.010817 
lfingers 0.000000 
lthumb 7.804490 29.825105 
rfemur -6.873430 6.193788 25.327285 
rtibia 27.604728 
rfoot -21.307681 -4.293249 
rtoes -25.655561 
lfemur -59.672309 3.320546 -19.712494 
ltibia 68.535472 
lfoot -10.304049 -1.989129 
ltoes -39.060317 
85
root -8.913114 18.032130 -15.585663 4.113961 1.500086 1.026916
lowerback -6.505641 3.324607 -1.141001 
upperback 3.088086 4.597433 -0.641338 
thorax 6.839010 2.224523 0.532167 
lowerneck -1.374668 -4.197500 3.399113 
upperneck 0.618673 -5.636969 -2.424821 
head 0.248627 -2.823884 -1.338191 
rclavicle 0.000000 0.000000 
rhumerus -15.697076 -0.873457 -88.672900 
rradius 53.680264 
rwrist 11.307659 
rhand -18.441235 -19.344976 
rfingers 0.000000 
rthumb 7.844523 -49.179420 
lclavicle 0.000000 0.000000 
lhumerus -54.450128 36.066226 51.814874 
lradius 25.323088 
lwrist -54.615456 
lhand -18.476602 0.491210 
lfingers 0.000000 
lthumb 7.810319 30.326959 
rfemur -6.366920 6.201747 25.372647 
rtibia 27.604617 
rfoot -21.527531 -4.020922 
rtoes -25.202591 
lfemur -59.150603 3.090510 -19.510521 
ltibia 66.238255 
lfoot -10.342135 -1.687750 
ltoes -38.777533 
86
root -8.909528 18.011986 -15.467769 4.079340 1.247742 0.965514
lowerback -6.650485 3.409437 -1.036223 
upperback 3.107303 4.705237 -0.659404 
thorax 6.951742 2.280887 0.478981 
lowerneck -1.405212 -4.211386 3.575106 
upperneck 0.672837 -5.657153 -2.682046 
head 0.257581 -2.834958 -1.451065 
rclavicle 0.000000 0.000000 
rhumerus -15.284670 -0.630789 -88.713005 
rradius 53.489850 
rwrist 11.370334 
rhand -18.298041 -19.111371 
rfingers 0.000000 
rthumb 7.982729 -48.940604 
lclavicle 0.000000 0.000000 
lhumerus -55.333587 36.697328 50.323778 
lradius 24.961194 
lwrist -55.130176 
lhand -18.496155 0.347289 
lfingers 0.000000 
lthumb 7.791503 30.183744 
rfemur -5.902458 6.259002 25.468553 
rtibia 27.611546 
rfoot -21.734307 -3.824492 
rtoes -24.658864 
lfemur -58.574678 2.876610 -19.284785 
ltibia 63.891485 
lfoot -10.269322 -1.243867 
ltoes -38.600837 
87
root -8.907318 17.990950 -15.349890 4.008060 1.001687 0.927415
lowerback -6.843589 3.476725 -1.003045 
upperback 3.214623 4.797801 -0.661339 
thorax 7.179566 2.324341 0.487593 
lowerneck -1.465557 -4.133688 3.544739 
upperneck 0.626417 -5.555371 -2.707537 
head 0.256781 -2.784877 -1.454772 
rclavicle 0.000000 0.000000 
rhumerus -14.753507 -0.517866 -88.791500 
rradius 53.235073 
rwrist 11.497727 
rhand -18.199277 -18.952862 
rfingers 0.000000 
rthumb 8.077969 -48.778507 
lclavicle 0.000000 0.000000 
lhumerus -56.144135 37.279270 49.022090 
lradius 24.845412 
lwrist -55.767369 
lhand -18.309006 0.180878 
lfingers 0.000000 
lthumb 7.972134 30.010445 
rfemur -5.386682 6.547037 25.585215 
rtibia 27.601095 
rfoot -21.989605 -3.918044 
rtoes -24.482769 
lfemur -57.932228 2.700996 -19.086761 
ltibia 61.535028 
lfoot -10.248167 -0.940861 
ltoes -38.617465 
88
root -8.904724 17.967406 -15.230864 4.026510 0.708677 0.846177
lowerback -6.994915 3.546942 -0.923430 
upperback 3.172963 4.884511 -0.646814 
thorax 7.227068 2.369301 0.478600 
lowerneck -1.339108 -4.079923 3.510282 
upperneck 0.572150 -5.479114 -2.779421 
head 0.220250 -2.746600 -1.467344 
rclavicle 0.000000 0.000000 
rhumerus -14.438932 -0.280023 -88.833147 
rradius 53.003884 
rwrist 11.647335 
rhand -17.945756 -19.026269 
rfingers 0.000000 
rthumb 8.322666 -48.842258 
lclavicle 0.000000 0.000000 
lhumerus -57.080234 37.538084 47.790767 
lradius 24.730594 
lwrist -56.289950 
lhand -18.382326 0.148828 
lfingers 0.000000 
lthumb 7.901356 29.981174 
rfemur -4.945140 6.499865 25.688022 
rtibia 27.524667 
rfoot -22.150498 -3.696667 
rtoes -24.591315 
lfemur -57.350681 2.628139 -18.861552 
ltibia 59.171915 
lfoot -10.177581 -0.456625 
ltoes -39.380296 
89
root -8.900956 17.944878 -15.107197 3.966082 0.449624 0.702949
lowerback -7.141421 3.623105 -0.786593 
upperback 3.178559 4.971420 -0.594819 
thorax 7.323920 2.415400 0.479111 
lowerneck -1.277156 -4.010741 3.344315 
upperneck 0.582649 -5.382374 -2.707360 
head 0.222655 -2.697782 -1.414742 
rclavicle 0.000000 0.000000 
rhumerus -14.146278 -0.074259 -88.855336 
rradius 52.678417 
rwrist 11.671651 
rhand -18.042309 -18.816716 
rfingers 0.000000 
rthumb 8.229541 -48.636422 
lclavicle 0.000000 0.000000 
lhumerus -57.756408 37.571684 47.061747 
lradius 24.778595 
lwrist -55.658724 
lhand -18.150852 0.335629 
lfingers 0.000000 
lthumb 8.124752 30.159326 
rfemur -4.364139 6.424254 25.873502 
rtibia 27.364576 
rfoot -22.266875 -3.576096 
rtoes -24.716692 
lfemur -56.610817 2.490362 -18.523758 
ltibia 56.785169 
lfoot -10.299936 0.035972 
ltoes -38.882083 
90
root -8.897513 17.923105 -14.983381 3.999346 0.127766 0.581147
lowerback -7.357025 3.734243 -0.619000 
upperback 3.147204 5.106444 -0.612601 
thorax 7.430604 2.488166 0.400338 
lowerneck -1.153811 -3.961802 3.413165 
upperneck 0.499063 -5.314778 -2.832349 
head 0.173158 -2.663879 -1.461620 
rclavicle 0.000000 0.000000 
rhumerus -13.825244 0.008334 -88.961609 
rradius 52.337247 
rwrist 11.817179 
rhand -18.075459 -18.857620 
rfingers 0.000000 
rthumb 8.197513 -48.678582 
lclavicle 0.000000 0.000000 
lhumerus -58.534232 37.690946 46.003844 
lradius 24.665842 
lwrist -56.185062 
lhand -18.368675 0.406107 
lfingers 0.000000 
lthumb 7.914541 30.237896 
rfemur -3.853489 6.582494 26.038248 
rtibia 27.185904 
rfoot -22.404271 -3.584499 
rtoes -24.724495 
lfemur -55.927204 2.422115 -18.211865 
ltibia 54.385915 
lfoot -10.290288 0.549278 
ltoes -39.637508 
91
root -8.889923 17.900707 -14.857209 4.050070 -0.041798 0.415071
lowerback -7.628024 3.757678 -0.418174 
upperback 3.114411 5.116981 -0.583511 
thorax 7.567121 2.499836 0.339635 
lowerneck -1.180400 -3.914636 3.478970 
upperneck 0.630465 -5.250920 -2.962818 
head 0.215052 -2.632254 -1.517087 
rclavicle 0.000000 0.000000 
rhumerus -13.518033 0.191155 -89.057005 
rradius 51.948546 
rwrist 11.905320 
rhand -17.828244 -18.988919 
rfingers 0.000000 
rthumb 8.436117 -48.800459 
lclavicle 0.000000 0.000000 
lhumerus -59.415197 37.890674 44.892535 
lradius 24.651398 
lwrist -56.419654 
lhand -18.322158 0.400213 
lfingers 0.000000 
lthumb 7.959388 30.230323 
rfemur -3.394490 6.274056 26.177228 
rtibia 27.050587 
rfoot -22.543182 -3.253451 
rtoes -25.008378 
lfemur -55.216371 2.229938 -17.889354 
ltibia 51.972966 
lfoot -10.301028 1.094588 
ltoes -39.699910 
92
root -8.883434 17.874414 -14.728498 4.095969 -0.291895 0.130892
lowerback -7.890533 3.832754 -0.115071 
upperback 3.057611 5.180733 -0.515661 
thorax 7.678901 2.541883 0.269110 
lowerneck -0.975980 -3.890988 3.577457 
upperneck 0.577272 -5.213869 -3.179675 
head 0.157167 -2.613101 -1.597193 
rclavicle 0.000000 0.000000 
rhumerus -13.282760 0.342745 -89.136108 
rradius 51.494178 
rwrist 11.987798 
rhand -17.835978 -18.738053 
rfingers 0.000000 
rthumb 8.428645 -48.549898 
lclavicle 0.000000 0.000000 
lhumerus -60.203573 37.863239 43.959314 
lradius 24.586105 
lwrist -56.840750 
lhand -18.334078 0.312372 
lfingers 0.000000 
lthumb 7.947907 30.142927 
rfemur -2.913837 6.211192 26.458258 
rtibia 26.923096 
rfoot -22.696515 -3.051069 
rtoes -24.967684 
lfemur -54.481403 2.140776 -17.435610 
ltibia 49.556464 
lfoot -10.318772 1.701750 
ltoes -39.840318 
93
root -8.873525 17.847779 -14.597276 4.267837 -0.452928 -0.095159
lowerback -8.294579 3.877524 0.178087 
upperback 2.961358 5.205036 -0.475994 
thorax 7.832214 2.564088 0.178048 
lowerneck -0.755200 -3.818215 3.506035 
upperneck 0.577801 -5.108526 -3.264616 
head 0.123530 -2.559179 -1.606749 
rclavicle 0.000000 0.000000 
rhumerus -13.023557 0.440120 -89.244115 
rradius 51.022196 
rwrist 12.113439 
rhand -17.648291 -18.686993 
rfingers 0.000000 
rthumb 8.609777 -48.491404 
lclavicle 0.000000 0.000000 
lhumerus -60.785251 37.623675 43.431949 
lradius 24.616037 
lwrist -56.434404 
lhand -18.299288 0.406883 
lfingers 0.000000 
lthumb 7.981453 30.236196 
rfemur -2.524611 6.116114 26.649408 
rtibia 26.766360 
rfoot -22.893303 -2.796748 
rtoes -24.970418 
lfemur -53.837288 2.010983 -17.101929 
ltibia 47.130883 
lfoot -10.198274 2.218898 
ltoes -40.135656 
